<?xml version="1.0" encoding="UTF-8" standalone="no"?>
<svg
   id="svg"
   version="1.1"
   width="1119.1462"
   height="823.98792"
   viewBox="0 0 1119.1463 823.98792"
   sodipodi:docname="vector(1).svg"
   inkscape:version="1.3.2 (091e20e, 2023-11-25)"
   inkscape:export-filename="vector(1).png"
   inkscape:export-xdpi="96"
   inkscape:export-ydpi="96"
   xmlns:inkscape="http://www.inkscape.org/namespaces/inkscape"
   xmlns:sodipodi="http://sodipodi.sourceforge.net/DTD/sodipodi-0.dtd"
   xmlns="http://www.w3.org/2000/svg"
   xmlns:svg="http://www.w3.org/2000/svg">
  <defs
     id="defs1">
    <rect
       x="736.59125"
       y="167.60759"
       width="643.966"
       height="143.3486"
       id="rect1" />
  </defs>
  <sodipodi:namedview
     id="namedview1"
     pagecolor="#ffffff"
     bordercolor="#cccccc"
     borderopacity="1"
     inkscape:showpageshadow="0"
     inkscape:pageopacity="1"
     inkscape:pagecheckerboard="0"
     inkscape:deskcolor="#d1d1d1"
     inkscape:zoom="0.45212397"
     inkscape:cx="639.20521"
     inkscape:cy="633.67576"
     inkscape:window-width="1512"
     inkscape:window-height="916"
     inkscape:window-x="0"
     inkscape:window-y="38"
     inkscape:window-maximized="0"
     inkscape:current-layer="svg"
     inkscape:export-bgcolor="#ffffffff" />
  <path
     d="m 305.66868,2.0899143 c -7.999,3.96 -12.266,11.1519997 -12.23,20.6139997 0.028,7.256 2.367,12.519 7.979,17.948 l 4.306,4.167 -4.395,18.583 c -2.417,10.221 -4.848,18.584 -5.403,18.583 -0.555,0 -21.934,-5.209 -47.509,-11.574 -42.88,-10.672 -47.054,-11.535 -53.61,-11.087 -12.177,0.833 -23.841,8.581 -28.847,19.162 -1.375,2.907 -6.358,21.197 -11.072,40.642996 -4.715,19.446 -11.058,45.257 -14.097,57.357 -4.863,19.364 -5.477,22.916 -5.121,29.647 0.503,9.512 3.957,16.905 10.959,23.454 6.539,6.117 10.263,7.588 32.885,12.992 10.672,2.549 19.752,4.955 20.179,5.347 0.82,0.752 -1.753,13.214 -3.34,16.18 -0.514,0.96 -1.815,2.024 -2.892,2.366 -1.077,0.342 -16.265,-2.527 -33.751,-6.375 -46.894,-10.319 -46.871,-10.317 -58.555,-6.499 -6.053999,1.979 -14.971999,10.017 -17.148999,15.457 -0.895,2.237 -3.431,11.573 -5.636,20.749 l -4.009,16.682 -8.447,11.808 c -27.449,38.369 -39.453,67.854 -45.064,110.692 -1.25,9.544 -1.513,17.23 -1.111,32.5 0.57,21.673 2.288,32.089 8.691,52.697 l 3.079,9.911 -2.143,7.696 c -6.211,22.306 -1.812,41.611 12.542,55.038 10.409,9.738 21.859,11.614 27.455,4.499 2.444,-3.107 2.569,-6.266 0.554,-14.002 -0.825,-3.168 -1.5,-8.578 -1.5,-12.023 0,-5.926 0.16,-6.347 2.95,-7.79 4.126,-2.134 8.303,-1.901 11.536,0.642 5.734,4.51 5.514,0.142 5.514,109.439 v 100.672 l -2.812,4.61 c -3.033,4.973 -12.204,27.313 -14.716,35.848 l -1.542,5.236 -33.686,0.264 -33.6860003,0.263 -1.24100001,2.491 c -1.002,2.01 -0.984,2.878 0.093,4.5 1.33300001,2.008 1.71800001,2.009 558.43799931,2.26 l 557.10502,0.251 1.638,-2.501 c 1.518,-2.317 1.518,-2.685 0,-5.001 l -1.638,-2.5 h -48.442 c -47.212,0 -48.468,-0.05 -49.498,-1.975 -0.667,-1.245 -0.957,-9.062 -0.786,-21.148 l 0.272,-19.174 6.139,-1.68 c 15.611,-4.271 26.868,-13.187 33.469,-26.509 3.66,-7.386 4.191,-9.361 4.641,-17.253 0.662,-11.6 -0.162,-13.261 -6.574,-13.261 -16.24,0 -33.321,10.657 -42.147,26.296 -1.77,3.137 -3.851,5.704 -4.623,5.704 -0.773,0 -1.405,-0.337 -1.406,-0.75 0,-1.505 -9.63302,-10.651 -14.53502,-13.801 -9.824,-6.314 -27.862,-9.529 -36.031,-6.423 -2.638,1.002 -2.687,1.176 -2.214,7.796 0.57,7.967 4.611,17.297 10.432,24.09 7.855,9.164 22.597,16.088 34.254,16.088 3.13202,0 6.23502,0.54 6.89502,1.2 1.692,1.692 1.692,37.908 0,39.6 -0.913,0.913 -20.37402,1.2 -81.48102,1.2 h -80.281 l -0.547,-2.25 c -0.302,-1.238 -0.423,-19.114 -0.27,-39.726 l 0.279,-37.476 2.5,-0.709 c 1.375,-0.389 7.615,-1.646 13.866,-2.793 13.36,-2.451 23.628,-6.482 33.747,-13.25 16.888,-11.295 26.85,-29.757 28.931,-53.612 0.587,-6.725 0.423,-8.585 -0.94,-10.665 -1.446,-2.208 -2.357,-2.518 -7.377,-2.513 -3.15,0.003 -10.122,0.668 -15.494,1.478 -25.102,3.784 -45.065,18.802 -56.844,42.766 -1.825,3.713 -3.559,6.748 -3.854,6.746 -0.294,-0.002 -1.379,-2.056 -2.411,-4.564 -2.938,-7.144 -10.748,-18.378 -17.216,-24.765 -13.657,-13.485 -26.515,-19.146 -47.567,-20.943 -17.436,-1.488 -17.843,-1.282 -17.834,9.005 0.014,15.105 6.073,32.499 15.512,44.525 11.712,14.921 33.085,25.533 55.23,27.421 3.987,0.34 7.705,1.167 8.262,1.838 0.655,0.79 0.92,14.941 0.751,40.104 l -0.262,38.883 -80.89,0.256 c -59.601,0.189 -81.254,-0.045 -82.27,-0.889 -1.108,-0.92 -1.326,-5.276 -1.109,-22.202 l 0.269,-21.058 9,-1.766 c 25.692,-5.042 44.432,-25.327 44.488,-48.157 0.023,-9.271 -2.6,-10.583 -16.361,-8.18 -16.502,2.881 -30.87,12.065 -38.127,24.37 -1.65,2.797 -3.53,5.095 -4.178,5.106 -0.647,0.011 -2.801,-2.653 -4.785,-5.919 -8.651,-14.241 -23.963,-22.914 -43.459,-24.615 -9.185,-0.801 -10.668,-0.151 -11.655,5.11 -0.853,4.55 1.932,17.606 5.167,24.217 1.454,2.972 5.335,8.281 8.626,11.798 8.811,9.42 17.69,13.878 33.417,16.779 l 6.867,1.266 0.271,20.34 c 0.238,17.871 0.068,20.565 -1.405,22.192 -1.618,1.788 -7.289,1.852 -164.882,1.852 h -163.204 l -0.598,-5.042 c -1.205,-10.176 -10.321,-24.174 -20.144,-30.932 -5.586,-3.844 -16.159,-7.349 -20.192,-6.695 -6.857,1.113 -6.389,8.907 -6.103,-101.831 l 0.258,-100 10.5,-0.002 c 8.588,-0.001 11.336,-0.388 15.089,-2.122 5.436,-2.513 11.161,-7.975 13.784,-13.153 1.037,-2.047 7.38,-25.992 14.094,-53.21 6.715,-27.218 12.42,-49.831 12.68,-50.25 0.887,-1.437 2.437,-0.755 11.724,5.155 14.104,8.975 24.454,12.843 40.557,15.154 10.484,1.505 25.896,0.625 36.072,-2.059 4.125,-1.088 8,-1.986 8.611,-1.996 0.612,-0.009 2.562,3.47 4.335,7.733 4.155,9.988 7.35,15.587 12.328,21.601 l 4.015,4.85 -3.376,6.978 c -4.196,8.674 -4.262,13.11 -0.29,19.513 7.321,11.804 51.396,37.661 90.68,53.198 21.063,8.331 26.677,9.662 34.287,8.125 5.457,-1.102 6.447,-1.753 12.91,-8.496 5.499,-5.736 13.111,-11.373 35.5,-26.29 15.675,-10.443 33.535,-22.613 39.689,-27.043 6.154,-4.431 12.914,-9.049 15.022,-10.262 l 3.833,-2.206 7.478,3.594 c 4.113,1.977 10.403,4.116 13.978,4.754 3.575,0.637 8.433,1.829 10.796,2.647 14.086,4.878 17.936,-0.187 16.85,-22.168 -1.176,-23.811 -7.779,-45.539 -16.629,-54.721 -4.051,-4.203 -5.17,-4.824 -8.692,-4.824 -3.607,0 -4.973,0.816 -12.692,7.583 -9.542,8.365 -16,16.703 -20.679,26.701 -1.691,3.614 -3.61,7.004 -4.264,7.532 -1.26,1.018 -39.53,16.611 -48.442,19.738 -3.41,1.196 -5.593,1.501 -6.226,0.868 -0.633,-0.633 2.131,-10.081 7.885,-26.949 10.474,-30.708 12.458,-38.83 11.909,-48.756 -0.861,-15.548 -4.898,-19.485 -36.853,-35.941 -28.882,-14.874 -33.977,-16.784 -44.681,-16.754 -8.659,0.024 -13.722,1.782 -20.425,7.091 l -3.939,3.12 -5.709,-3.495 c -9.057,-5.544 -13.698,-7.641 -20.428,-9.227 -15.241,-3.594 -29.782,-0.061 -40.673,9.881 -3.003,2.742 -6.573,4.805 -10.251,5.925 -3.996,1.216 -7.407,3.291 -11.681,7.104 -5.185,4.628 -7.025,5.612 -13.054,6.983 -8.781,1.997 -14.097,2.014 -21.57,0.068 -14.519,-3.782 -27.338,-13.827 -37.898,-29.697 -7.97,-11.978 -8.229,-13.276 -5.169,-25.905 3.389,-13.99 3.31,-20.691 -0.335,-28.37 -3.242,-6.829 -10.18,-13.767 -16.474,-16.474 -2.297,-0.988 -16.326,-4.371 -31.176,-7.518 -14.85,-3.148 -28.069,-6.397 -29.375,-7.22 -2.183,-1.377 -2.323,-1.945 -1.729,-6.998 0.728,-6.196 1.858,-8.821 4.377,-10.167 1.215,-0.649 9.288,0.992 27.227,5.535 22.175,5.615 26.413,6.404 32.5,6.055 11.668,-0.668 23.082,-8.017 28.816,-18.552 1.848,-3.396 7.065,-22.353 16.865,-61.289 12.521,-49.741 14.198,-57.372 14.254,-64.872 0.055,-7.219 -0.34,-9.365 -2.623,-14.236 -3.209,-6.847 -11.209,-15.168 -17.077,-17.762 -2.329,-1.03 -23.313,-6.602 -46.631,-12.382996 -23.317,-5.781 -42.8,-10.915 -43.294,-11.409 -0.96,-0.96 6.762,-33.783 8.46,-35.96 0.536,-0.687 1.932,-1.254 3.102,-1.259 3.24,-0.015 12.2,-5.552 14.927,-9.225 9.049,-12.187 4.763,-29.6659997 -8.799,-35.8869997 -5.608,-2.57300005 -14.803,-2.47000005 -20.248,0.225 m 17.531,10.4569997 c 9.775,6.846 4.886,22.531 -6.983,22.404 -11.804,-0.127 -16.305,-16.828 -6.037,-22.4 3.606,-1.956 10.23,-1.959 13.02,-0.004 m -72.247,69.857 c 28.03,6.83 69.864,17.009 92.964,22.620996 23.1,5.611 44.348,11.075 47.218,12.141 8.634,3.209 16.282,13.992 16.282,22.957 0,3.688 -27.83,116.612 -29.572,119.993 -4.274,8.295 -12.988,13.911 -21.72,13.999 -3.326,0.033 -17.676,-3.033 -39.708,-8.484 -18.975,-4.694 -60.95,-15.082 -93.277,-23.084 -32.328,-8.001 -60.483,-15.418 -62.568,-16.482 -4.557,-2.325 -10.819,-9.032 -12.752,-13.657 -2.905,-6.953 -1.893,-12.65 12.656,-71.274 10.225,-41.198996 14.714,-57.648996 16.461,-60.316996 4.374,-6.683 11.304,-10.601 19.016,-10.752 2.219,-0.043 26.969,5.509 55,12.339 m -28.232,9.538 c -4.741,2.891 -6.292,5.943 -9.312,18.325996 -1.505,6.17 -7.781,31.693 -13.947,56.718 -11.209,45.491 -11.961,49.986 -8.971,53.589 2.14,2.579 4.931,1.642 6.533,-2.191 1.325,-3.171 6.931,-25.447 26.371,-104.798 2.817,-11.495 4.888,-21.506996 4.603,-22.249996 -0.689,-1.796 -1.488,-1.704 -5.277,0.606 m 40.02,53.681996 c -6.369,2.256 -12.571,8.319 -15.911,15.554 -2.57,5.565 -2.913,7.426 -2.913,15.808 0,8.649 0.264,9.977 2.949,14.824 7.055,12.735 21.502,17.736 34.051,11.786 15.598,-7.396 22.591,-28.903 14.494,-44.578 -6.142,-11.891 -20.407,-17.74 -32.67,-13.394 m 87,20.75 c -9.068,2.948 -15.797,8.966 -19.695,17.612 -9.206,20.422 2.532,42.9 22.443,42.978 11.567,0.046 21.419,-6.159 26.616,-16.764 2.398,-4.892 2.802,-6.937 2.807,-14.214 0.004,-7.097 -0.426,-9.408 -2.604,-14 -6.118,-12.894 -18.239,-19.295 -29.567,-15.612 m -101.095,93.24 c 19.106,4.745 35.455,9.152 36.331,9.792 1.45,1.06 1.412,1.872 -0.415,9.004 -1.104,4.312 -2.376,8.181 -2.827,8.6 -0.45,0.418 -16.118,-2.783 -34.818,-7.114 -18.7,-4.331 -34.755,-7.883 -35.679,-7.893 -2.139,-0.022 -4.853,-2.699 -4.355,-4.296 0.21,-0.672 1.122,-4.709 2.026,-8.971 1.259,-5.932 2.038,-7.75 3.321,-7.75 0.923,0 17.31,3.882 36.416,8.628 m -114.76,5.44 c 11.017,2.237 27.681,5.861 37.031,8.053 9.35,2.193 36.575,8.431 60.5,13.863 97.794,22.205 114.706,26.12 119.173,27.589 5.541,1.822 11.962,8.277 13.814,13.886 0.712,2.16 0.995,5.653 0.657,8.118 -0.326,2.38 -8.648,36.636 -18.494,76.125 -9.846,39.489 -21.14,85.171 -25.099,101.516 -7.737,31.951 -10.302,38.79 -15.949,42.531 -5.081,3.366 -12.16,2.927 -35.413,-2.199 -17.172,-3.784 -51.015,-11.122 -139.189,-30.179 -21.326,-4.61 -22.805,-5.036 -25.906,-7.476 -5.369999,-4.223 -12.171999,-21.76 -15.229999,-39.259 -1.959,-11.212 -1.399,-35.08 1.105,-47.136 5.699,-27.434 17.470999,-51.241 40.545999,-82 11.426,-15.23 14.576,-20.92 16.076,-29.037 3.411,-18.449 -7.454,-34.508 -26.012,-38.446 -7.032,-1.492 -14.988,-0.14 -22.578999,3.836 -9.186,4.813 -8.865,4.836 -8.129,-0.584 1.605,-11.821 6.116,-18.731 14.147999,-21.671 5.755,-2.106 6.894,-2.009 28.95,2.47 m -8.969,27.798 c 4.989,2.272 10.865,8.679 12.498,13.628 1.598,4.843 0.709,11.177 -2.442,17.396 -2.883,5.689 -14.21,20.11 -15.796,20.11 -1.836,0 -29.776999,-21.994 -34.209999,-26.929 -1.908,-2.124 -1.911,-2.246 -0.101,-5.606 2.813,-5.223 13.749,-15.184 19.725999,-17.967 6.511,-3.031 14.512,-3.28 20.325,-0.632 m 46.5,5.112 c 0,1.638 -2.722,14.126 -6.049,27.75 -5.856,23.984 -15.027,61.982 -33.894,140.428 -4.982,20.712 -9.057,38.734 -9.057,40.05 0,2.979 1.733,4.794 4.578,4.794 2.86,0 4.136,-1.675 5.961,-7.82 1.335,-4.496 16.779,-67.593 39.017,-159.413 4.094,-16.904 7.444,-32.839 7.444,-35.413 0,-3.207 -0.8,-6.043 -2.542,-9.016 -2.998,-5.115 -5.458,-5.728 -5.458,-1.36 m -92.931999,28.779 c 7.582,5.148 33.931999,26.601 33.931999,27.626 0,0.659 -2.288,4.78 -5.085,9.158 -2.796,4.377 -8.443999,14.809 -12.549999,23.181 -4.106,8.372 -7.8,15.429 -8.208,15.681 -1.312,0.811 -45.315,-10.65 -45.806,-11.93 -0.647,-1.687 5.809,-18.811 11.678,-30.973 5.496,-11.389 20.403,-34.503 22.246,-34.493 0.674,0.003 2.38,0.791 3.793,1.75 m 294.226999,60.493 c 2.459,3.438 7.223,8.869 10.588,12.071 3.364,3.201 6.117,6.032 6.117,6.291 0,0.259 -3.143,4.376 -6.984,9.149 -3.842,4.773 -9.497,13.268 -12.569,18.878 -3.071,5.61 -6.169,10.424 -6.885,10.699 -1.782,0.684 -7.089,-2.687 -9.127,-5.796 -1.611,-2.459 -1.439,-3.498 4.599,-27.798 6.898,-27.769 7.486,-29.744 8.853,-29.744 0.516,0 2.949,2.813 5.408,6.25 m 143.868,-0.655 c 6.769,2.572 15.286,8.545 15.631,10.964 0.162,1.132 -0.642,3.249 -1.786,4.704 -2.337,2.97 -3.122,2.858 -9.903,-1.424 -9.109,-5.751 -18.859,-7.381 -28.826,-4.818 -4.771,1.227 -5.395,1.184 -7.25,-0.494 -4.064,-3.679 -1.442,-7.268 7.45,-10.198 5.268,-1.736 18.578,-1.053 24.684,1.266 m 81.644,14.012 c 26.705,13.524 31.954,17.044 35.353,23.706 2.992,5.865 2.083,12.609 -4.539,33.687 -34.838,110.896 -36.603,116.213 -39.461,118.869 -5.996,5.574 -23.853,0.4 -59.66,-17.287 -20.952,-10.349 -32.255,-16.933 -47.412,-27.618 -10.726,-7.56 -13.088,-10.037 -13.088,-13.723 0,-2.499 23.934,-41.154 45.968,-74.241 7.508,-11.275 17.846,-27.16 22.973,-35.299 12.243,-19.439 15.516,-21.973 27.534,-21.317 6.65,0.363 8.159,0.981 32.332,13.223 m -537.806999,6.272 22.5,5.753 -0.086,2.934 c -0.047,1.614 -1.099,7.659 -2.338,13.434 -1.239,5.775 -2.505,15.802 -2.813,22.283 -0.308,6.48 -0.914,12.001 -1.346,12.269 -1.386,0.856 -45.079,5.619 -45.715,4.983 -1.231,-1.23 -1.401,-19.621 -0.288,-31.024 0.999,-10.226 4.18,-29.62 5.703,-34.761 0.285,-0.962 0.825,-1.722 1.2,-1.687 0.376,0.034 10.808,2.652 23.183,5.816 m 418.152999,-2.997 c 2.499,1.585 6.238,4.576 8.309,6.646 3.498,3.498 3.732,4.099 3.312,8.477 -0.524,5.444 -5.216,16.031 -9.188,20.727 -3.467,4.1 -8.768,5.726 -15.801,4.847 -10.096,-1.262 -15.042,-6.132 -15.093,-14.865 -0.128,-21.791 14.252,-34.843 28.461,-25.832 m 68.097,0.252 c -2.323,2.353 -1.389,5.588 2.5,8.655 10.718,8.452 40.081,24.781 56.25,31.282 15.49,6.228 22,6.369 22,0.476 0,-2.547 -1.529,-3.459 -12,-7.153 -11.293,-3.983 -38.66,-18.363 -55.351,-29.084 -7.585,-4.872 -11.506,-6.094 -13.399,-4.176 m -34.81,3.381 c 2.848,1.347 6.254,3.595 7.569,4.994 2.883,3.069 4.304,0.236 -15.303,30.491 -7.664,11.825 -15.014,23.188 -16.334,25.25 -1.32,2.063 -2.813,3.75 -3.318,3.75 -1.087,0 -4.161,-4.358 -5.853,-8.297 -2.224,-5.178 -1.562,-7.301 3.133,-10.053 8.37,-4.905 15.378,-14.703 18.092,-25.294 2.104,-8.214 1.983,-13.131 -0.441,-17.885 -1.108,-2.173 -1.775,-4.575 -1.483,-5.337 0.73,-1.901 7.236,-0.79 13.938,2.381 m -103.767,7.075 c 7.946,2.667 18.31,3.459 26.827,2.051 5.86,-0.97 6.736,0.002 4.865,5.392 -2.222,6.402 -1.372,13.629 2.464,20.948 3.772,7.194 4.012,10.431 0.921,12.422 -3.352,2.16 -13.181,4.435 -24.458,5.662 -12.926,1.406 -25.385,-0.51 -36.042,-5.543 -6.475,-3.057 -7.248,-3.723 -7.228,-6.223 0.032,-4.135 3.167,-10.35 10.595,-21.003 7.279,-10.441 12.117,-16.296 13.466,-16.296 0.481,0 4.347,1.165 8.59,2.59 m 56.071,42.16 c 1.081,0.962 2.927,4.369 4.103,7.569 1.176,3.2 3.764,8.268 5.751,11.262 4.039,6.086 4.037,8.406 -0.011,13.112 -2.386,2.775 -2.408,2.779 -4.541,0.849 -6.083,-5.505 -16.027,-28.841 -13.946,-32.729 1.251,-2.338 6.049,-2.373 8.644,-0.063 m 257.871,3.478 c 5.882,11.607 10.147,28.908 11.1,45.022 0.496,8.393 0.36,9.75 -0.976,9.75 -4.813,0 -18.897,-52.099 -15.699,-58.074 1.604,-2.998 2.717,-2.34 5.575,3.302 m 33.825,3.223 c -0.883,1.348 -1.45,3.26 -1.259,4.248 0.471,2.446 7.235,5.525 13.321,6.064 4.108,0.364 5.33,0.081 6.84,-1.588 3.151,-3.483 1.412,-5.568 -7.106,-8.518 -9.425,-3.266 -9.787,-3.272 -11.796,-0.206 m -47.073,16.156 c 1.503,8.033 4.06,18.244 5.682,22.691 1.623,4.447 2.951,8.674 2.951,9.393 0,2.37 -3.687,1.376 -13.66,-3.682 -5.412,-2.746 -10.376,-4.996 -11.03,-5 -0.655,-0.005 -4.03,2.159 -7.5,4.808 -3.471,2.649 -14.635,10.604 -24.81,17.678 -10.175,7.074 -24.364,17.013 -31.53,22.087 -15.57,11.024 -20.12,13.794 -20.814,12.67 -0.537,-0.868 7.869,-28.884 10.628,-35.424 0.852,-2.02 2.599,-4.336 3.882,-5.147 1.284,-0.811 14.034,-5.852 28.334,-11.203 14.3,-5.351 27.941,-10.635 30.313,-11.743 5.917,-2.764 9.924,-7.044 11.267,-12.038 0.621,-2.308 1.73,-5.36 2.465,-6.781 1.814,-3.512 9.311,-12.916 10.296,-12.916 0.437,0 2.024,6.573 3.526,14.607 m -629.568999,0.393 c 0.717,3.025 2.406,9.659 3.753,14.743 1.347,5.084 2.449,9.584 2.449,10 0,0.416 -5.512,0.757 -12.25,0.757 -11.206,0 -12.739,0.229 -17.985,2.688 -3.155,1.478 -7.247,3.841 -9.095,5.25 -5.344,4.076 -6.187,3.539 -8.624,-5.49 -5.094,-18.88 -6.178,-27.576 -3.563,-28.58 2.426,-0.931 36.722,-5.178 40.514,-5.017 3.382,0.144 3.539,0.328 4.801,5.649 m 715.401999,-1.8 c -2.881,2.881 -1.368,6.316 5.05,11.463 7.565,6.067 8.913,6.612 11.635,4.705 3.768,-2.639 2.685,-5.815 -3.635,-10.656 -8.882,-6.805 -10.903,-7.659 -13.05,-5.512 m -27.629,21.371 c -1.737,1.738 -1.875,2.472 -0.929,4.939 0.949,2.474 12.402,10.49 14.987,10.49 2.546,0 5.371,-2.434 5.371,-4.628 0,-2.084 -5.626,-7.073 -11.217,-9.947 -5.559,-2.858 -6.146,-2.919 -8.212,-0.854 m 56.407,5.469 c -1.439,2.69 1.117,6.869 8.443,13.797 5.624,5.319 7.311,6.031 9.379,3.963 2.647,-2.647 1.223,-6.222 -5.199,-13.05 -6.861,-7.296 -10.51,-8.657 -12.623,-4.71 m -734.649999,13.801 c 7.81,3.844 12.862999,9.206 16.996999,18.036 2.603,5.558 3.155,8.07 3.434,15.623 0.399,10.827 -0.799,14 -5.289,14 -2.591,0 -3.329,-0.701 -5.790999,-5.5 -4.712,-9.187 -11.865,-15 -18.458,-15 -5.785,0 -13.577,3.121 -17.443,6.987 -3.737,3.737 -3.778,3.864 -3.778,11.729 0,4.373 0.517,10.524 1.148,13.669 1.41,7.018 0.486,8.534 -4.054,6.654 -4.593,-1.903 -11.896,-10.354 -15.412,-17.836 -2.837,-6.035 -3.152,-7.649 -3.165,-16.203 -0.018,-11.186 1.784,-16.116 8.586,-23.496 8.161,-8.853 17.266,-12.662 29.082,-12.165 6.201,0.26 8.933,0.937 14.143,3.502 m 708.698999,9.109 c -1.52,2.84 -0.532,5.576 4.152,11.488 5.387,6.8 7.381,8.084 10.411,6.703 3.241,-1.477 3.1,-4.677 -0.449,-10.195 -5.5,-8.553 -11.882,-12.168 -14.114,-7.996 m -665.27,7.082 c 7.559,1.667 15.205,3.502 16.993,4.077 l 3.25,1.046 v 49.904 49.903 l -2.25,0.551 c -1.238,0.303 -13.05,0.424 -26.25,0.269 l -23.999999,-0.282 v -31.5 -31.5 l 4.507999,-0.519 c 5.96,-0.686 11.346,-4.141 13.636,-8.747 2.362,-4.752 2.413,-19.124 0.096,-27.583 -1.393,-5.085 -1.445,-8.651 -0.126,-8.651 0.221,0 6.585,1.364 14.143,3.032 m 623.443,1.168 c -2.328,2.328 -1.096,5.366 4.683,11.55 6.086,6.512 8.683,7.542 11.618,4.606 2.468,-2.468 1.112,-5.856 -4.793,-11.974 -5.301,-5.491 -8.893,-6.797 -11.508,-4.182 m 96.371,1.371 c -2.274,2.275 -1.974,4.242 1.78,11.705 4.33,8.605 5.325,9.724 8.649,9.724 3.428,0 5.405,-2.249 4.644,-5.282 -0.657,-2.617 -7.383,-13.321 -10.034,-15.968 -2.159,-2.156 -3.031,-2.187 -5.039,-0.179 m -665.617,9.446 c 10.06,2.209 18.686,4.261 19.169,4.559 0.494,0.305 0.877,48.233 0.877,109.771 v 109.23 l -4.836,10.961 c -2.66,6.029 -5.482,11.088 -6.272,11.241 -0.79,0.154 -3.226,-2.067 -5.413,-4.935 -4.733,-6.206 -13.631,-12.996 -20.224,-15.432 -2.615,-0.966 -5.317,-2.184 -6.005,-2.707 -0.987,-0.75 -1.25,-24.383 -1.25,-112.246 0,-61.212 0.273,-112.007 0.607,-112.877 0.868,-2.263 2.934,-2.048 23.347,2.435 m 57.345,12.405 c 13.639,2.977 25.457,5.96 26.262,6.628 1.245,1.034 1.424,6.683 1.201,37.833 l -0.262,36.617 -26.75,0.266 -26.75,0.267 v -42.85 c 0,-35.741 0.272,-44.234 1.417,-44.179 0.045,0.002 11.242,2.44 24.882,5.418 m 575.693,3.088 c -1.803,2.172 -0.678,8.623 2.674,15.324 3.082,6.161 5.336,7.379 8.446,4.564 2.312,-2.092 1.94,-4.902 -1.775,-13.398 -3.302,-7.553 -6.576,-9.827 -9.345,-6.49 m -41.242,8.57 c -2.291,1.335 -2.208,4.175 0.343,11.73 1.635,4.842 2.62,6.331 4.498,6.802 5.529,1.388 7.217,-1.422 5.491,-9.137 -1.938,-8.661 -5.707,-12.088 -10.332,-9.395 m 91.322,6.286 c -1.133,2.116 -1.025,3.426 0.769,9.299 1.149,3.759 2.805,7.848 3.68,9.085 1.792,2.532 5.184,2.918 7.94,0.902 2.475,-1.809 1.71,-7.376 -2.093,-15.229 -2.477,-5.115 -3.285,-5.964 -5.923,-6.222 -2.392,-0.234 -3.341,0.236 -4.373,2.165 m -37.132,26.207 c -1.071,1.29 -1.074,2.952 -0.019,9.25 0.707,4.222 1.705,8.465 2.218,9.427 1.087,2.042 6.806,2.405 8.661,0.55 2.359,-2.359 0.614,-15.58 -2.513,-19.035 -1.981,-2.189 -6.602,-2.296 -8.347,-0.192 m -44.068,8.085 c -1.592,1.923 -1.462,14.371 0.182,17.443 1.243,2.323 7.116,2.604 8.923,0.427 1.478,-1.781 -0.075,-15.737 -2.012,-18.07 -1.622,-1.954 -5.397,-1.848 -7.093,0.2 m -636.984,40.707 c 0.815,0.982 1.06,13.552 0.873,44.75 l -0.261,43.385 -26.25,0.267 -26.249999,0.266 v -44.35 c 0,-24.392 0.3,-44.65 0.666999,-45.016 0.366,-0.367 11.786,-0.667 25.377,-0.667 19.663,0 24.943,0.279 25.844,1.365 m 119,0 c 0.815,0.982 1.06,13.552 0.873,44.75 l -0.261,43.385 h -26.5 -26.5 l -0.261,-43.5 c -0.143,-23.925 -0.045,-44.062 0.219,-44.75 0.731,-1.905 50.845,-1.795 52.43,0.115 m 512.579,11.168 c 11.235,2.927 18.412,7.186 27.617,16.389 7.12,7.12 9.379,10.203 13.252,18.081 4.706,9.575 8.299,22.725 6.662,24.386 -1.381,1.401 -18.383,-1.175 -25.545,-3.87 -21.548,-8.111 -35.589,-25.048 -40.037,-48.294 -0.779,-4.07 -1.416,-7.586 -1.416,-7.813 0,-1.063 14.229,-0.243 19.467,1.121 m 129.003,3.717 c -2.133,15.592 -7.23,26.489 -16.97,36.278 -10.573,10.625 -24.524,16.747 -43.402,19.044 l -5.401,0.657 0.579,-5.364 c 1.515,-14.03 8.266,-27.361 19.724,-38.951 11.177,-11.305 23.642,-16.712 38.844,-16.848 l 7.344,-0.066 -0.718,5.25 m -284.155,55.766 c 6.794,2.098 14.534,7.23 19.06,12.637 3.311,3.955 8.423,14.875 8.823,18.847 0.297,2.953 0.231,2.998 -4.198,2.845 -9.776,-0.335 -22.026,-7.359 -29.056,-16.661 -3.25,-4.3 -7.98,-15.262 -7.954,-18.434 0.015,-1.873 5.873,-1.536 13.325,0.766 m 83.506,1.36 c 0.496,4.206 -5.089,14.987 -10.639,20.537 -5.704,5.704 -14.204,10.295 -22.465,12.133 -7.597,1.691 -8.282,0.91 -5.724,-6.526 5.289,-15.372 17.2,-26.045 31.787,-28.483 6.184,-1.034 6.662,-0.875 7.041,2.339 m 340.33502,4.624 c -0.476,6.231 -4.764,14.599 -10.396,20.288 -5.139,5.19 -15.521,10.71 -20.146,10.711 -2.866,10e-4 -2.881,-0.032 -2.248,-4.749 0.997,-7.428 5.947,-16.422 12.165,-22.104 5.683,-5.194 14.128,-9.248 18.469,-8.866 2.321,0.204 2.475,0.541 2.156,4.72 m -76.95502,5.115 c 12.479,2.624 22.526,10.497 27.36702,21.444 1.338,3.024 2.432,5.71 2.432,5.97 0,1.221 -9.47802,0.258 -15.37402,-1.563 -5.142,-1.588 -7.896,-3.247 -12.567,-7.572 -8.674,-8.03 -13.736,-19.394 -8.64,-19.394 0.816,0 3.867,0.502 6.782,1.115 m -823.281,18.288 c 0.738,0.89 1.057,4.456 0.872,9.75 l -0.292,8.347 h -26 -25.999999 l -0.293,-8.416 c -0.161,-4.629 -0.063,-9.017 0.218,-9.75 0.772999,-2.013 49.821999,-1.947 51.494999,0.069 m 117.857,0.154 c 1.95,1.365 2.221,2.44 2.208,8.75 -0.009,3.956 -0.38,7.766 -0.824,8.467 -0.621,0.979 -6.703,1.272 -26.172,1.264 -13.949,-0.006 -25.692,-0.355 -26.095,-0.775 -1.271,-1.325 -1.881,-16.574 -0.719,-17.974 0.819,-0.987 6.733,-1.289 25.225,-1.289 20.244,0 24.515,0.252 26.377,1.557 m -104.209,29.948 c 6.733,2.055 13.738,7.458 17.827,13.749 4.323,6.651 6.08,11.719 5.232,15.095 l -0.665,2.651 h -52.512 c -58.077999,0 -54.918999,0.38 -52.675999,-6.338 1.455,-4.358 9.55,-23.878 10.539,-25.412 1.285,-1.994 65.630999,-1.767 72.254999,0.255 m 132.797,1.995 c 10.209,5.222 19.635,17.619 19.635,25.824 v 3.693 l -56.75,-0.259 -56.75,-0.258 -0.318,-2.762 c -0.561,-4.881 7.2,-26.946 10.201,-29.003 0.615,-0.421 18.442,-0.646 39.617,-0.5 l 38.5,0.265 5.865,3"
     stroke="none"
     fill="#000000"
     fill-rule="evenodd"
     id="path1" />
  <text
     xml:space="preserve"
     id="text1"
     style="font-style:normal;font-variant:normal;font-weight:normal;font-stretch:normal;font-size:53.3333px;font-family:nunito;-inkscape-font-specification:nunito;text-align:center;white-space:pre;shape-inside:url(#rect1);display:inline;fill:#000000;stroke:#000000;stroke-width:0.944882;stroke-linejoin:round;stroke-miterlimit:10;stroke-opacity:0.984314;paint-order:markers fill stroke"
     transform="matrix(1.9399163,0,0,1.9399163,-1271.0249,-181.36396)"><tspan
       x="895.08087"
       y="213.80485"
       id="tspan1">WaterSystem</tspan></text>
</svg>
